<svg
 xmlns = "http://www.w3.org/2000/svg"
 width = "900"
 height= "540"
 viewBox = "0 0 900 540" >

  <rect x="0" y="0" width="900" height="540" fill="#339966" fill-opacity="0.4" />
  <rect x="150" y="90" rx="40" ry="40" width="600" height="360" fill="none" stroke="#fffeff" stroke-width="3" />
  <line x1 = "150" y1="60" x2 = "750" y2="60" stroke="#336666" stroke-dasharray="2 3" stroke-width="1" />
  <line x1 = "150" y1="79" x2 = "150" y2="40" stroke="#336666"  stroke-width="1" />
  <line x1 = "750" y1="79" x2 = "750" y2="40" stroke="#336666"  stroke-width="1" />
  <text x="375" y="49" font-family="sans-serif" font-size="14"  fill= "#1a0066" >20～24 m</text>
  <line x1 = "816" y1="90" x2 = "816" y2="450" stroke="#336666" stroke-dasharray="2 3" stroke-width="1" />
  <line x1 = "804" y1="90" x2 = "828" y2="90" stroke="#336666"  stroke-width="1" />
  <line x1 = "804" y1="450" x2 = "828" y2="450" stroke="#336666"  stroke-width="1" />
  <text x="776" y="270" font-family="sans-serif" font-size="14"  fill= "#1a0066" >12～14 m</text>
  <rect x="696" y="246" rx="5" ry="5" width="18" height="48" stroke="#a00000" fill="transparent" fill-opacity="0.0" stroke-width="2" />
  <polygon points="693 231 , 693 308 , 665 308 , 665 231" fill="#fffeff" stroke="#fffeff" stroke-width="2" fill-opacity="0.0" />
  <rect x="185" y="246" rx="5" ry="5" width="18" height="48" stroke="#a00000" fill="transparent" fill-opacity="0.0" stroke-width="2" />
  <polygon points="206 308 , 234 308 , 234 231 , 206 231" fill="#fffeff" stroke="#fffeff" stroke-width="2" fill-opacity="0.0" />
  <circle cx="450" cy="270" r="5" fill="#00feff" />
  <circle cx="205" cy="120" r="5" fill="#00feff" />
  <circle cx="450" cy="120" r="5" fill="#00feff" />
  <circle cx="694" cy="120" r="5" fill="#00feff" />
  <circle cx="205" cy="420" r="5" fill="#00feff" />
  <circle cx="450" cy="420" r="5" fill="#00feff" />
  <circle cx="694" cy="420" r="5" fill="#00feff" />
  <line x1 = "150" y1="225" x2 = "205" y2="225" stroke="#336666" stroke-dasharray="2 3" stroke-width="1" />
  <line x1 = "150" y1="226" x2 = "150" y2="223" stroke="#336666"  stroke-width="1" />
  <line x1 = "205" y1="226" x2 = "205" y2="223" stroke="#336666"  stroke-width="1" />
  <text x="170" y="214" font-family="sans-serif" font-size="14"  fill= "#1a0066" >1.85m</text>
  <line x1 = "216" y1="90" x2 = "216" y2="120" stroke="#336666" stroke-dasharray="2 3" stroke-width="1" />
  <line x1 = "215" y1="90" x2 = "217" y2="90" stroke="#336666"  stroke-width="1" />
  <line x1 = "215" y1="120" x2 = "217" y2="120" stroke="#336666"  stroke-width="1" />
  <text x="212" y="105" font-family="sans-serif" font-size="14"  fill= "#1a0066" >1m</text>
  <line x1 = "664" y1="213" x2 = "694" y2="213" stroke="#336666" stroke-dasharray="2 3" stroke-width="1" />
  <line x1 = "664" y1="214" x2 = "664" y2="212" stroke="#336666"  stroke-width="1" />
  <line x1 = "694" y1="214" x2 = "694" y2="212" stroke="#336666"  stroke-width="1" />
  <text x="675" y="202" font-family="sans-serif" font-size="14"  fill= "#1a0066" >1m</text>
  <line x1 = "630" y1="232" x2 = "630" y2="307" stroke="#336666" stroke-dasharray="2 3" stroke-width="1" />
  <line x1 = "627" y1="232" x2 = "632" y2="232" stroke="#336666"  stroke-width="1" />
  <line x1 = "627" y1="307" x2 = "632" y2="307" stroke="#336666"  stroke-width="1" />
  <text x="621" y="270" font-family="sans-serif" font-size="14"  fill= "#1a0066" >2.5m</text>
  <circle cx="450" cy="270" r="5" fill="#00feff" />
  <circle cx="205" cy="120" r="5" fill="#00feff" />
  <circle cx="450" cy="120" r="5" fill="#00feff" />
  <circle cx="694" cy="120" r="5" fill="#00feff" />
  <circle cx="205" cy="420" r="5" fill="#00feff" />
  <circle cx="450" cy="420" r="5" fill="#00feff" />
  <circle cx="694" cy="420" r="5" fill="#00feff" />
  <line x1 = "150" y1="225" x2 = "205" y2="225" stroke="#336666" stroke-dasharray="2 3" stroke-width="1" />
  <line x1 = "150" y1="226" x2 = "150" y2="223" stroke="#336666"  stroke-width="1" />
  <line x1 = "205" y1="226" x2 = "205" y2="223" stroke="#336666"  stroke-width="1" />
  <text x="170" y="214" font-family="sans-serif" font-size="14"  fill= "#1a0066" >1.85m</text>
  <line x1 = "216" y1="90" x2 = "216" y2="120" stroke="#336666" stroke-dasharray="2 3" stroke-width="1" />
  <line x1 = "215" y1="90" x2 = "217" y2="90" stroke="#336666"  stroke-width="1" />
  <line x1 = "215" y1="120" x2 = "217" y2="120" stroke="#336666"  stroke-width="1" />
  <text x="212" y="105" font-family="sans-serif" font-size="14"  fill= "#1a0066" >1m</text>
  <line x1 = "664" y1="213" x2 = "694" y2="213" stroke="#336666" stroke-dasharray="2 3" stroke-width="1" />
  <line x1 = "664" y1="214" x2 = "664" y2="212" stroke="#336666"  stroke-width="1" />
  <line x1 = "694" y1="214" x2 = "694" y2="212" stroke="#336666"  stroke-width="1" />
  <text x="675" y="202" font-family="sans-serif" font-size="14"  fill= "#1a0066" >1m</text>
  <line x1 = "630" y1="232" x2 = "630" y2="307" stroke="#336666" stroke-dasharray="2 3" stroke-width="1" />
  <line x1 = "627" y1="232" x2 = "632" y2="232" stroke="#336666"  stroke-width="1" />
  <line x1 = "627" y1="307" x2 = "632" y2="307" stroke="#336666"  stroke-width="1" />
  <text x="621" y="270" font-family="sans-serif" font-size="14"  fill= "#1a0066" >2.5m</text>

</svg>

