<svg
 xmlns = "http://www.w3.org/2000/svg"
 width = "900"
 height= "450"
 viewBox = "0 0 900 450" >

  <rect x="0" y="0" width="900" height="450" fill="#339966" fill-opacity="0.4" />
  <rect x="33" y="75" rx="40" ry="40" width="600" height="300" fill="none" stroke="#fffeff" stroke-width="3" />
  <line x1 = "33" y1="50" x2 = "633" y2="50" stroke="#336666" stroke-dasharray="2 3" stroke-width="1" />
  <line x1 = "33" y1="69" x2 = "33" y2="30" stroke="#336666"  stroke-width="1" />
  <line x1 = "633" y1="69" x2 = "633" y2="30" stroke="#336666"  stroke-width="1" />
  <text x="258" y="39" font-family="sans-serif" font-size="14"  fill= "#1a0066" >36～44 m</text>
  <line x1 = "676" y1="75" x2 = "676" y2="375" stroke="#336666" stroke-dasharray="2 3" stroke-width="1" />
  <line x1 = "666" y1="75" x2 = "686" y2="75" stroke="#336666"  stroke-width="1" />
  <line x1 = "666" y1="375" x2 = "686" y2="375" stroke="#336666"  stroke-width="1" />
  <text x="642" y="225" font-family="sans-serif" font-size="14"  fill= "#1a0066" >18～22 m</text>
  <polygon points="584 182 , 584 267 , 520 267 , 520 182" fill="#fffeff" stroke="#fffeff" stroke-width="2" fill-opacity="0.0" />
  <polygon points="81 267 , 146 267 , 146 182 , 81 182" fill="#fffeff" stroke="#fffeff" stroke-width="2" fill-opacity="0.0" />
  <polygon points="574 203 , 574 246 , 559 246 , 559 203" fill="#fffeff" stroke="#fffeff" stroke-width="2" fill-opacity="0.0" />
  <polygon points="92 246 , 107 246 , 107 203 , 92 203" fill="#fffeff" stroke="#fffeff" stroke-width="2" fill-opacity="0.0" />
  <line x1 = "575" y1="238" x2 = "583" y2="238" stroke="#a00000"  stroke-width="2" />
  <line x1 = "575" y1="211" x2 = "583" y2="211" stroke="#a00000"  stroke-width="2" />
  <line x1 = "91" y1="211" x2 = "83" y2="211" stroke="#a00000"  stroke-width="2" />
  <line x1 = "91" y1="238" x2 = "83" y2="238" stroke="#a00000"  stroke-width="2" />
  <circle cx="333" cy="225" r="5" fill="#00feff" />
  <circle cx="91" cy="100" r="5" fill="#00feff" />
  <circle cx="333" cy="100" r="5" fill="#00feff" />
  <circle cx="575" cy="100" r="5" fill="#00feff" />
  <circle cx="91" cy="350" r="5" fill="#00feff" />
  <circle cx="333" cy="350" r="5" fill="#00feff" />
  <circle cx="575" cy="350" r="5" fill="#00feff" />
  <line x1 = "100" y1="75" x2 = "100" y2="100" stroke="#336666" stroke-dasharray="2 3" stroke-width="1" />
  <line x1 = "99" y1="75" x2 = "100" y2="75" stroke="#336666"  stroke-width="1" />
  <line x1 = "99" y1="100" x2 = "100" y2="100" stroke="#336666"  stroke-width="1" />
  <text x="97" y="87" font-family="sans-serif" font-size="14"  fill= "#1a0066" >1.5m</text>
  <line x1 = "33" y1="166" x2 = "80" y2="166" stroke="#336666" stroke-dasharray="2 3" stroke-width="1" />
  <line x1 = "33" y1="168" x2 = "33" y2="165" stroke="#336666"  stroke-width="1" />
  <line x1 = "80" y1="168" x2 = "80" y2="165" stroke="#336666"  stroke-width="1" />
  <text x="51" y="155" font-family="sans-serif" font-size="14"  fill= "#1a0066" >2.85m</text>
  <line x1 = "80" y1="166" x2 = "147" y2="166" stroke="#336666" stroke-dasharray="2 3" stroke-width="1" />
  <line x1 = "80" y1="168" x2 = "80" y2="164" stroke="#336666"  stroke-width="1" />
  <line x1 = "147" y1="168" x2 = "147" y2="164" stroke="#336666"  stroke-width="1" />
  <text x="105" y="155" font-family="sans-serif" font-size="14"  fill= "#1a0066" >4.0m</text>
  <line x1 = "175" y1="183" x2 = "175" y2="266" stroke="#336666" stroke-dasharray="2 3" stroke-width="1" />
  <line x1 = "172" y1="183" x2 = "177" y2="183" stroke="#336666"  stroke-width="1" />
  <line x1 = "172" y1="266" x2 = "177" y2="266" stroke="#336666"  stroke-width="1" />
  <text x="165" y="225" font-family="sans-serif" font-size="14"  fill= "#1a0066" >5.0m</text>
  <line x1 = "33" y1="245" x2 = "91" y2="245" stroke="#336666" stroke-dasharray="2 3" stroke-width="1" />
  <line x1 = "33" y1="247" x2 = "33" y2="243" stroke="#336666"  stroke-width="1" />
  <line x1 = "91" y1="247" x2 = "91" y2="243" stroke="#336666"  stroke-width="1" />
  <text x="55" y="234" font-family="sans-serif" font-size="14"  fill= "#1a0066" >3.5m</text>
  <polygon points="815 294 , 815 421 , 717 421 , 717 294" fill="#fffeff" stroke="#fffeff" stroke-width="2" fill-opacity="0.0" />
  <polygon points="799 326 , 799 390 , 776 390 , 776 326" fill="#fffeff" stroke="#fffeff" stroke-width="2" fill-opacity="0.0" />
  <line x1 = "775" y1="320" x2 = "800" y2="320" stroke="#336666" stroke-dasharray="2 3" stroke-width="1" />
  <line x1 = "775" y1="320" x2 = "775" y2="319" stroke="#336666"  stroke-width="1" />
  <line x1 = "800" y1="320" x2 = "800" y2="319" stroke="#336666"  stroke-width="1" />
  <text x="784" y="309" font-family="sans-serif" font-size="14"  fill= "#1a0066" >1.0m</text>
  <line x1 = "800" y1="378" x2 = "812" y2="378" stroke="#a00000"  stroke-width="2" />
  <line x1 = "800" y1="338" x2 = "812" y2="338" stroke="#a00000"  stroke-width="2" />
  <line x1 = "807" y1="327" x2 = "807" y2="389" stroke="#336666" stroke-dasharray="2 3" stroke-width="1" />
  <line x1 = "805" y1="327" x2 = "809" y2="327" stroke="#336666"  stroke-width="1" />
  <line x1 = "805" y1="389" x2 = "809" y2="389" stroke="#336666"  stroke-width="1" />
  <text x="800" y="358" font-family="sans-serif" font-size="14"  fill= "#1a0066" >2.5m</text>

</svg>

