<svg
 xmlns = "http://www.w3.org/2000/svg"
 width = "900"
 height= "540"
 viewBox = "0 0 900 540" >

  <rect x="0" y="0" width="900" height="540" fill="#339966" fill-opacity="0.4" />
  <rect x="150" y="90" rx="40" ry="40" width="600" height="360" fill="none" stroke="#fffeff" stroke-width="3" />
  <line x1 = "150" y1="59" x2 = "750" y2="59" stroke="#336666" stroke-dasharray="2 3" stroke-width="1" />
  <line x1 = "150" y1="80" x2 = "150" y2="39" stroke="#336666"  stroke-width="1" />
  <line x1 = "750" y1="80" x2 = "750" y2="39" stroke="#336666"  stroke-width="1" />
  <text x="375" y="48" font-family="sans-serif" font-size="14"  fill= "#1a0066" >24～30 m</text>
  <line x1 = "816" y1="90" x2 = "816" y2="450" stroke="#336666" stroke-dasharray="2 3" stroke-width="1" />
  <line x1 = "805" y1="90" x2 = "828" y2="90" stroke="#336666"  stroke-width="1" />
  <line x1 = "805" y1="450" x2 = "828" y2="450" stroke="#336666"  stroke-width="1" />
  <text x="777" y="270" font-family="sans-serif" font-size="14"  fill= "#1a0066" >14～15 m</text>
  <rect x="705" y="249" rx="5" ry="5" width="15" height="41" stroke="#a00000" fill="transparent" fill-opacity="0.0" stroke-width="2" />
  <polygon points="702 236 , 702 303 , 679 303 , 679 236" fill="#fffeff" stroke="#fffeff" stroke-width="2" fill-opacity="0.0" />
  <rect x="179" y="249" rx="5" ry="5" width="15" height="41" stroke="#a00000" fill="transparent" fill-opacity="0.0" stroke-width="2" />
  <polygon points="197 303 , 220 303 , 220 236 , 197 236" fill="#fffeff" stroke="#fffeff" stroke-width="2" fill-opacity="0.0" />
  <circle cx="450" cy="270" r="5" fill="#00feff" />
  <circle cx="196" cy="115" r="5" fill="#00feff" />
  <circle cx="450" cy="115" r="5" fill="#00feff" />
  <circle cx="703" cy="115" r="5" fill="#00feff" />
  <circle cx="196" cy="424" r="5" fill="#00feff" />
  <circle cx="450" cy="424" r="5" fill="#00feff" />
  <circle cx="703" cy="424" r="5" fill="#00feff" />
  <line x1 = "150" y1="244" x2 = "196" y2="244" stroke="#336666" stroke-dasharray="2 3" stroke-width="1" />
  <line x1 = "150" y1="245" x2 = "150" y2="242" stroke="#336666"  stroke-width="1" />
  <line x1 = "196" y1="245" x2 = "196" y2="242" stroke="#336666"  stroke-width="1" />
  <text x="167" y="233" font-family="sans-serif" font-size="14"  fill= "#1a0066" >1.85m</text>
  <line x1 = "205" y1="90" x2 = "205" y2="115" stroke="#336666" stroke-dasharray="2 3" stroke-width="1" />
  <line x1 = "204" y1="90" x2 = "205" y2="90" stroke="#336666"  stroke-width="1" />
  <line x1 = "204" y1="115" x2 = "205" y2="115" stroke="#336666"  stroke-width="1" />
  <text x="202" y="102" font-family="sans-serif" font-size="14"  fill= "#1a0066" >1m</text>
  <line x1 = "678" y1="221" x2 = "703" y2="221" stroke="#336666" stroke-dasharray="2 3" stroke-width="1" />
  <line x1 = "678" y1="222" x2 = "678" y2="220" stroke="#336666"  stroke-width="1" />
  <line x1 = "703" y1="222" x2 = "703" y2="220" stroke="#336666"  stroke-width="1" />
  <text x="688" y="210" font-family="sans-serif" font-size="14"  fill= "#1a0066" >1m</text>
  <line x1 = "650" y1="237" x2 = "650" y2="302" stroke="#336666" stroke-dasharray="2 3" stroke-width="1" />
  <line x1 = "647" y1="237" x2 = "652" y2="237" stroke="#336666"  stroke-width="1" />
  <line x1 = "647" y1="302" x2 = "652" y2="302" stroke="#336666"  stroke-width="1" />
  <text x="643" y="270" font-family="sans-serif" font-size="14"  fill= "#1a0066" >2.5m</text>

</svg>

