<svg
 xmlns = "http://www.w3.org/2000/svg"
 width = "900"
 height= "900"
 viewBox = "0 0 900 900" >

  <rect x="0" y="0" width="900" height="900" fill="#339966" fill-opacity="0.4" />
  <rect x="422" y="81" rx="5" ry="5" width="55" height="20" stroke="#a00000" fill="transparent" fill-opacity="0.0" stroke-width="2" />
  <polygon points="450 221 , 461 200 , 438 200" fill="#ff6600"  />
  <polygon points="450 325 , 461 304 , 438 304" fill="#ff6600"  />
  <polygon points="450 429 , 461 408 , 438 408" fill="#ff6600"  />
  <polygon points="450 533 , 461 512 , 438 512" fill="#ff6600"  />
  <polygon points="450 636 , 461 616 , 438 616" fill="#ff6600"  />
  <polygon points="450 740 , 461 720 , 438 720" fill="#ff6600"  />
  <line x1 = "726" y1="103" x2 = "726" y2="830" stroke="#336666" stroke-dasharray="2 3" stroke-width="1" />
  <line x1 = "702" y1="103" x2 = "751" y2="103" stroke="#336666"  stroke-width="1" />
  <line x1 = "702" y1="830" x2 = "751" y2="830" stroke="#336666"  stroke-width="1" />
  <text x="646" y="467" font-family="sans-serif" font-size="26"  fill= "#1a0066" >21m</text>
  <line x1 = "173" y1="103" x2 = "173" y2="207" stroke="#336666" stroke-dasharray="2 3" stroke-width="1" />
  <line x1 = "169" y1="103" x2 = "176" y2="103" stroke="#336666"  stroke-width="1" />
  <line x1 = "169" y1="207" x2 = "176" y2="207" stroke="#336666"  stroke-width="1" />
  <text x="161" y="155" font-family="sans-serif" font-size="26"  fill= "#1a0066" >3m</text>
  <line x1 = "173" y1="207" x2 = "173" y2="311" stroke="#336666" stroke-dasharray="2 3" stroke-width="1" />
  <line x1 = "169" y1="207" x2 = "176" y2="207" stroke="#336666"  stroke-width="1" />
  <line x1 = "169" y1="311" x2 = "176" y2="311" stroke="#336666"  stroke-width="1" />
  <text x="161" y="259" font-family="sans-serif" font-size="26"  fill= "#1a0066" >3m</text>
  <line x1 = "173" y1="311" x2 = "173" y2="415" stroke="#336666" stroke-dasharray="2 3" stroke-width="1" />
  <line x1 = "169" y1="311" x2 = "176" y2="311" stroke="#336666"  stroke-width="1" />
  <line x1 = "169" y1="415" x2 = "176" y2="415" stroke="#336666"  stroke-width="1" />
  <text x="161" y="363" font-family="sans-serif" font-size="26"  fill= "#1a0066" >3m</text>
  <line x1 = "173" y1="415" x2 = "173" y2="519" stroke="#336666" stroke-dasharray="2 3" stroke-width="1" />
  <line x1 = "169" y1="415" x2 = "176" y2="415" stroke="#336666"  stroke-width="1" />
  <line x1 = "169" y1="519" x2 = "176" y2="519" stroke="#336666"  stroke-width="1" />
  <text x="161" y="467" font-family="sans-serif" font-size="26"  fill= "#1a0066" >3m</text>
  <line x1 = "173" y1="519" x2 = "173" y2="623" stroke="#336666" stroke-dasharray="2 3" stroke-width="1" />
  <line x1 = "169" y1="519" x2 = "176" y2="519" stroke="#336666"  stroke-width="1" />
  <line x1 = "169" y1="623" x2 = "176" y2="623" stroke="#336666"  stroke-width="1" />
  <text x="161" y="571" font-family="sans-serif" font-size="26"  fill= "#1a0066" >3m</text>
  <line x1 = "173" y1="623" x2 = "173" y2="726" stroke="#336666" stroke-dasharray="2 3" stroke-width="1" />
  <line x1 = "169" y1="623" x2 = "176" y2="623" stroke="#336666"  stroke-width="1" />
  <line x1 = "169" y1="726" x2 = "176" y2="726" stroke="#336666"  stroke-width="1" />
  <text x="161" y="675" font-family="sans-serif" font-size="26"  fill= "#1a0066" >3m</text>
  <line x1 = "173" y1="726" x2 = "173" y2="830" stroke="#336666" stroke-dasharray="2 3" stroke-width="1" />
  <line x1 = "169" y1="726" x2 = "176" y2="726" stroke="#336666"  stroke-width="1" />
  <line x1 = "169" y1="830" x2 = "176" y2="830" stroke="#336666"  stroke-width="1" />
  <text x="161" y="778" font-family="sans-serif" font-size="26"  fill= "#1a0066" >3m</text>
  <polygon points="380 830 , 519 830 , 519 829 , 380 829" fill="#fffeff"  />

</svg>

