<svg
 xmlns = "http://www.w3.org/2000/svg"
 width = "900"
 height= "900"
 viewBox = "0 0 900 900" >

  <rect x="0" y="0" width="900" height="900" fill="#339966" fill-opacity="0.4" />
  <polygon points="315 114 , 335 78 , 294 78" fill="#ff6600"  />
  <polygon points="405 114 , 425 78 , 384 78" fill="#ff6600"  />
  <polygon points="495 114 , 515 78 , 474 78" fill="#ff6600"  />
  <polygon points="585 114 , 605 78 , 564 78" fill="#ff6600"  />
  <line x1 = "315" y1="67" x2 = "405" y2="67" stroke="#336666" stroke-dasharray="2 3" stroke-width="1" />
  <line x1 = "315" y1="70" x2 = "315" y2="64" stroke="#336666"  stroke-width="1" />
  <line x1 = "405" y1="70" x2 = "405" y2="64" stroke="#336666"  stroke-width="1" />
  <text x="348" y="56" font-family="sans-serif" font-size="26"  fill= "#1a0066" >1m</text>
  <line x1 = "405" y1="67" x2 = "495" y2="67" stroke="#336666" stroke-dasharray="2 3" stroke-width="1" />
  <line x1 = "405" y1="70" x2 = "405" y2="64" stroke="#336666"  stroke-width="1" />
  <line x1 = "495" y1="70" x2 = "495" y2="64" stroke="#336666"  stroke-width="1" />
  <text x="438" y="56" font-family="sans-serif" font-size="26"  fill= "#1a0066" >1m</text>
  <line x1 = "495" y1="67" x2 = "585" y2="67" stroke="#336666" stroke-dasharray="2 3" stroke-width="1" />
  <line x1 = "495" y1="70" x2 = "495" y2="64" stroke="#336666"  stroke-width="1" />
  <line x1 = "585" y1="70" x2 = "585" y2="64" stroke="#336666"  stroke-width="1" />
  <text x="528" y="56" font-family="sans-serif" font-size="26"  fill= "#1a0066" >1m</text>
  <line x1 = "180" y1="90" x2 = "180" y2="450" stroke="#336666" stroke-dasharray="2 3" stroke-width="1" />
  <line x1 = "167" y1="90" x2 = "192" y2="90" stroke="#336666"  stroke-width="1" />
  <line x1 = "167" y1="450" x2 = "192" y2="450" stroke="#336666"  stroke-width="1" />
  <text x="140" y="270" font-family="sans-serif" font-size="26"  fill= "#1a0066" >4m</text>
  <line x1 = "180" y1="450" x2 = "180" y2="810" stroke="#336666" stroke-dasharray="2 3" stroke-width="1" />
  <line x1 = "167" y1="450" x2 = "192" y2="450" stroke="#336666"  stroke-width="1" />
  <line x1 = "167" y1="810" x2 = "192" y2="810" stroke="#336666"  stroke-width="1" />
  <text x="140" y="630" font-family="sans-serif" font-size="26"  fill= "#1a0066" >4m</text>
  <polygon points="315 456 , 585 456 , 585 443 , 315 443" fill="#336666"  />
  <line x1 = "315" y1="432" x2 = "585" y2="432" stroke="#336666" stroke-dasharray="2 3" stroke-width="1" />
  <line x1 = "315" y1="441" x2 = "315" y2="423" stroke="#336666"  stroke-width="1" />
  <line x1 = "585" y1="441" x2 = "585" y2="423" stroke="#336666"  stroke-width="1" />
  <text x="416" y="421" font-family="sans-serif" font-size="26"  fill= "#1a0066" >障害物 幅 3m以上, 高さ 25～30 cm</text>
  <polygon points="315 810 , 585 810 , 585 807 , 315 807" fill="#fffeff"  />

</svg>

